<?xml version="1.0" encoding="utf-8"?>
<!-- Generator: Adobe Illustrator 19.2.0, SVG Export Plug-In . SVG Version: 6.00 Build 0)  -->
<svg version="1.1" id="Capa_1" xmlns="http://www.w3.org/2000/svg" xmlns:xlink="http://www.w3.org/1999/xlink" x="0px" y="0px"
	 viewBox="0 0 496 496" style="enable-background:new 0 0 496 496;" xml:space="preserve">
<style type="text/css">
	.st0{fill:#FFFFFF;}
</style>
<title>btn-back</title>
<title>btn-next</title>
<g>
	<path class="st0" d="M278.7,113.3c5.4-5.4,14.3-5.4,19.8,0c2.6,2.6,4.1,6.1,4.1,9.9s-1.5,7.2-4.1,9.9l-115,115l115,115
		c2.6,2.7,4.1,6.2,4.1,9.9c0,3.7-1.5,7.2-4.1,9.9c-2.6,2.6-6.1,4-9.8,4.1l0,0c-3.7,0-7.3-1.5-9.8-4.1l-125-125
		c-5.4-5.4-5.5-14.1-0.2-19.6L278.7,113.3z"/>
	<path class="st0" d="M20.1,248.9c0,60.4,23.4,117.3,65.9,160.3c21.2,21.4,46.1,38,73.9,49.5c27.6,11.4,56.8,17.2,86.6,17.2
		c0.2,0,0.4,0,0.6,0c60.9,0,118.1-23.7,161.1-66.7s66.7-100.3,66.7-161.1c0-30.1-5.8-59.4-17.3-87.2s-28.1-52.7-49.4-73.9
		C365.3,44.4,308.4,21,248,21c-0.4,0-0.8,0-1.2,0c-60.9,0.3-118,24.3-160.8,67.6C43.5,131.6,20.1,188.5,20.1,248.9z M105,392.1
		c-78.9-77.8-79.7-205.2-1.9-284.1c0.6-0.7,1.3-1.3,1.9-1.9c37.2-37.4,88.8-58.9,141.5-58.9c0.2,0,0.3,0,0.5,0l0,0
		c53.7,0,104.1,20.9,142.1,58.8c37.9,37.9,58.8,88.4,58.8,142.1c0,26.5-5.1,52.4-15.3,76.9c-10.1,24.5-24.8,46.4-43.5,65.2
		C311.3,469,183.9,469.9,105,392.1z"/>
</g>
</svg>
