<?xml version="1.0" encoding="utf-8"?>
<!-- Generator: Adobe Illustrator 19.2.0, SVG Export Plug-In . SVG Version: 6.00 Build 0)  -->
<svg version="1.1" id="Capa_1" xmlns="http://www.w3.org/2000/svg" xmlns:xlink="http://www.w3.org/1999/xlink" x="0px" y="0px"
	 viewBox="0 0 496 496" style="enable-background:new 0 0 496 496;" xml:space="preserve">
<style type="text/css">
	.st0{fill:#FFFFFF;}
</style>
<title>btn-next</title>
<g>
	<path class="st0" d="M218.4,113.3c-5.4-5.4-14.3-5.4-19.8,0c-2.6,2.6-4.1,6.1-4.1,9.9s1.5,7.2,4.1,9.9l115,115l-115,115
		c-2.6,2.7-4.1,6.2-4.1,9.9s1.5,7.2,4.1,9.9c2.6,2.6,6.1,4,9.8,4.1l0,0c3.7,0,7.3-1.5,9.8-4.1L343,258.1c5.4-5.4,5.5-14.1,0.2-19.6
		L218.4,113.3z"/>
	<path class="st0" d="M409.1,88.6C366.3,45.3,309.2,21.3,248.3,21c-0.4,0-0.8,0-1.2,0c-60.4,0-117.3,23.4-160.3,65.9
		c-21.3,21.3-37.9,46.1-49.4,73.9S20.1,218,20.1,248c0,60.9,23.7,118.1,66.7,161.1s100.3,66.7,161.1,66.7c0.2,0,0.4,0,0.6,0
		c29.9,0,59-5.8,86.6-17.2c27.8-11.5,52.7-28.2,73.9-49.5c42.5-42.9,65.9-99.9,65.9-160.3S451.6,131.6,409.1,88.6z M105.9,390.1
		c-18.7-18.7-33.4-40.7-43.5-65.2c-10.1-24.5-15.3-50.4-15.3-76.9c0-53.7,20.9-104.1,58.8-142.1C143.8,68,194.3,47.1,248,47.1l0,0
		c0.2,0,0.3,0,0.5,0c52.7,0,104.3,21.4,141.5,58.9c0.7,0.6,1.3,1.3,1.9,1.9c77.8,78.9,76.9,206.3-1.9,284.1
		C311.2,469.9,183.7,469,105.9,390.1z"/>
</g>
</svg>
