<?xml version="1.0" encoding="utf-8"?>
<!-- Generator: Adobe Illustrator 19.2.0, SVG Export Plug-In . SVG Version: 6.00 Build 0)  -->
<svg version="1.1" id="Capa_1" xmlns="http://www.w3.org/2000/svg" xmlns:xlink="http://www.w3.org/1999/xlink" x="0px" y="0px"
	 viewBox="0 0 512 512" style="enable-background:new 0 0 512 512;" xml:space="preserve">
<style type="text/css">
	.st0{fill:#FFFFFF;}
</style>
<g id="Close">
	<path class="st0" d="M295.5,256l118.4-118.4c10.9-10.9,10.9-28.6,0-39.5c-10.9-10.9-28.6-10.9-39.5,0L256,216.5L137.6,98.2
		c-10.9-10.9-28.6-10.9-39.5,0c-10.9,10.9-10.9,28.6,0,39.5L216.5,256L98.2,374.4c-10.9,10.9-10.9,28.6,0,39.5
		c10.9,10.9,28.6,10.9,39.5,0L256,295.5l118.4,118.4c10.9,10.9,28.6,10.9,39.5,0c10.9-10.9,10.9-28.6,0-39.5L295.5,256z"/>
</g>
</svg>
