<?xml version="1.0" encoding="utf-8"?>
<!-- Generator: Adobe Illustrator 19.2.0, SVG Export Plug-In . SVG Version: 6.00 Build 0)  -->
<svg version="1.1" id="Layer_1" xmlns="http://www.w3.org/2000/svg" xmlns:xlink="http://www.w3.org/1999/xlink" x="0px" y="0px"
	 viewBox="0 0 180.4 180.4" style="enable-background:new 0 0 180.4 180.4;" xml:space="preserve">
<style type="text/css">
	.st0{fill:#BCBBBB;}
</style>
<title>logo-mark</title>
<path class="st0" d="M55.5,99.3v35.6c0,7.6,6.2,13.7,13.8,13.8l0,0c7.6,0,13.8-6.2,13.8-13.8v-13.6C71.5,117.6,61.7,109.8,55.5,99.3
	z"/>
<path class="st0" d="M133.2,95.1c-7.3-0.7-14.6-1.9-21.7-3.6l-4-0.9l-4.2-1c-4.2-1-8.7-2.1-13.5-3.3c-3.2-0.8-6.5-1.1-9.7-1.1
	c-8.3,0.1-16.5,2.1-24,5.8c1.4,3.7,3.3,7.1,5.7,10.3c2.5,3.3,5.4,6.2,8.7,8.7c9.1-1.7,18.6-4.3,30.6-7.1c1.5-0.3,2.9-0.6,4.4-0.8
	c1.4-0.2,2.8-0.3,4.2-0.3c6.4-0.1,12.7,1,18.7,3.2c2.1-2.3,4-4.8,5.6-7.4c0.4-0.7,0.8-1.4,1.1-2.1L133.2,95.1z"/>
<path class="st0" d="M108.5,105.4c-1.5,0.1-3,0.4-4.5,0.7c-0.5,0.1-1,0.2-1.5,0.3c-10.6,2.5-19.2,4.8-27.4,6.5
	c6.4,3.6,13.5,5.6,20.9,5.7h0.6c1.6,0,3.3-0.1,4.9-0.3c9.1-1,17.7-4.9,24.4-11.1C120.3,105.6,114.4,105,108.5,105.4z"/>
<path class="st0" d="M76.2,77.7c1.3,1,2.7,1.8,4.3,2.9c0-0.8,0-1.2,0-1.6c-0.1-5.8-0.7-11.6-0.3-17.3c0.7-11,3.6-21.1,10.6-29.6
	c-13.6,1.9-25.6,10.1-32.2,22.2c0.3,1.1,0.6,2.2,1,3.3C62.7,66.1,68.8,72.4,76.2,77.7z"/>
<path class="st0" d="M129.5,88c-4.6-7-10.8-12.4-18.1-17.2c0.1,0.8,0.1,1.3,0.1,1.8c0.5,5,0.6,10.1,0.3,15.2
	c6.4,1.6,13,2.7,19.6,3.4C130.8,90.1,130.2,89,129.5,88z"/>
<path class="st0" d="M91.9,59.5c8.1-5,16.6-9,26.1-10.6c4.2-0.8,8.5-0.9,12.8-0.5c-5.3-6.8-12.6-11.9-20.8-14.6l-0.3-0.1l-1.1-0.3
	c-3.9-1.1-7.9-1.6-11.9-1.6h-0.1c-9.1,9.1-11.8,20.6-12.6,33.2C86.7,63,89.2,61.1,91.9,59.5z"/>
<path class="st0" d="M133.9,53c-0.8-0.2-1.6-0.3-2.4-0.5c-8.5-1.2-16.6,0.6-24.4,3.7c-2.6,1-5,2.2-7.4,3.3c5,2.8,9.9,5.3,14.5,8.3
	c8.6,5.5,15.9,12.3,20.7,21.4c0.4,0.8,0.8,1.5,1.1,2.3h0.9l0,0l0,0c0.4-1,0.8-2,1.1-3.1C141.7,76.6,140.3,63.7,133.9,53z"/>
<path class="st0" d="M69.7,78.2c-9.5-8.3-14.1-17.6-14.1-17.1v26.3c5.9-3,12.3-4.9,18.9-5.7C72.8,80.6,71.2,79.5,69.7,78.2z"/>
</svg>
