<svg id="Layer_1" data-name="Layer 1" xmlns="http://www.w3.org/2000/svg" viewBox="0 0 825.6 180.36"><defs><style>.cls-1{fill:#1a1a1a;}.cls-2{fill:#fff;}.cls-3{fill:#fdb73f;}</style></defs><title>logo</title><circle class="cls-1" cx="90.18" cy="90.18" r="90.18"/><path class="cls-2" d="M55.93,99.75v35.6A13.76,13.76,0,0,0,69.68,149.1h0a13.76,13.76,0,0,0,13.76-13.76V121.77A49.22,49.22,0,0,1,55.93,99.75Z" transform="translate(-0.4 -0.44)"/><path class="cls-3" d="M133.58,95.52a147.35,147.35,0,0,1-21.69-3.64l-4-.94-4.2-1c-4.2-1-8.67-2.14-13.54-3.29a42.8,42.8,0,0,0-9.73-1.14,56.33,56.33,0,0,0-24,5.76,43.54,43.54,0,0,0,5.67,10.26,43.69,43.69,0,0,0,8.66,8.72c9.07-1.71,18.63-4.3,30.58-7.13a41.93,41.93,0,0,1,4.43-.8c1.43-.18,2.85-0.29,4.25-0.32a52.32,52.32,0,0,1,18.74,3.16,43.59,43.59,0,0,0,5.55-7.42q0.6-1,1.15-2.07Z" transform="translate(-0.4 -0.44)"/><path class="cls-3" d="M108.89,105.89a42.33,42.33,0,0,0-4.54.65c-0.49.1-1,.2-1.46,0.32-10.55,2.5-19.23,4.81-27.36,6.49A43.22,43.22,0,0,0,96.39,119H97a43.9,43.9,0,0,0,4.91-.28,43.28,43.28,0,0,0,24.41-11.11A49.17,49.17,0,0,0,108.89,105.89Z" transform="translate(-0.4 -0.44)"/><path class="cls-2" d="M76.56,78.13c1.33,1,2.71,1.84,4.31,2.92,0-.77,0-1.17,0-1.58-0.13-5.78-.65-11.59-0.3-17.35,0.67-11,3.56-21.09,10.56-29.6A43.47,43.47,0,0,0,58.91,54.67a27.78,27.78,0,0,0,1,3.28C63.09,66.55,69.25,72.84,76.56,78.13Z" transform="translate(-0.4 -0.44)"/><path class="cls-2" d="M129.87,88.43c-4.63-7-10.83-12.38-18.09-17.19,0.06,0.83.08,1.31,0.12,1.78a99.74,99.74,0,0,1,.32,15.19,153,153,0,0,0,19.56,3.41Q130.9,90,129.87,88.43Z" transform="translate(-0.4 -0.44)"/><path class="cls-2" d="M92.27,59.93c8.09-5,16.64-9,26.1-10.63a46.29,46.29,0,0,1,12.76-.51,43.3,43.3,0,0,0-20.83-14.58L110,34.1l-1.13-.34A43.48,43.48,0,0,0,97,32.13H96.87c-9.13,9.1-11.81,20.58-12.61,33.22C87.12,63.41,89.64,61.58,92.27,59.93Z" transform="translate(-0.4 -0.44)"/><path class="cls-2" d="M134.28,53.41c-0.81-.19-1.62-0.35-2.44-0.46-8.48-1.15-16.57.56-24.4,3.71-2.55,1-5,2.25-7.43,3.34,5,2.81,9.88,5.32,14.51,8.29,8.56,5.49,15.88,12.3,20.74,21.39,0.4,0.75.76,1.51,1.11,2.28l0.86,0h0v0q0.61-1.51,1.12-3.09A43.45,43.45,0,0,0,134.28,53.41Z" transform="translate(-0.4 -0.44)"/><path class="cls-2" d="M70.06,78.65C60.53,70.31,56,61,56,61.53V87.88a57.2,57.2,0,0,1,18.89-5.74A58.08,58.08,0,0,1,70.06,78.65Z" transform="translate(-0.4 -0.44)"/><path class="cls-1" d="M244.42,49.7h-16A8.24,8.24,0,0,0,220,57.95V130.7h12v-31h12.42c10.44,0,19.58-8,19.58-18.71V69.52C264,58.84,254.87,49.7,244.42,49.7Zm0,40H232V61.26L244,61c4.41,0,7,3.88,7,8.48V81C251,85.66,248.91,89.7,244.42,89.7Z" transform="translate(-0.4 -0.44)"/><path class="cls-1" d="M301.29,48.54a9.24,9.24,0,0,0-8.68,6.66l-19.36,75.5h12.12l0.19-.25c0.79-3.24,1.81-7.3,4.29-17l2.5-9.79H310l7.11,27h12.34L309.73,54.95A9,9,0,0,0,301.29,48.54Zm5.84,44.16h-12c0.9-5,1.72-7.93,2.51-11.93,1-5.09,2-10.29,3.27-15.17l0.34-2.76,0.28,2.65Z" transform="translate(-0.4 -0.44)"/><path class="cls-1" d="M385.69,95.66C391.3,93,395,86,395,81.22V69.29c0-11.37-9.31-19.6-20.69-19.6H358.72c-5,0-8.72,3.18-8.72,8.25V130.7h12v-30h10.25c4.9,0,10.75,4.83,10.75,9.52V130.7h12V110.22C395,105.26,391.65,98.31,385.69,95.66ZM383,69.29V81.22c0,4.82-6,8.48-10.75,8.48H362v-31h12.31C379.07,58.7,383,64.6,383,69.29Z" transform="translate(-0.4 -0.44)"/><path class="cls-1" d="M444.36,48.54a9.24,9.24,0,0,0-8.68,6.66l-19.36,75.5h12.12l0.19-.25c0.79-3.24,1.81-7.3,4.29-17l2.5-9.79h17.66l7.11,27h12.34L452.8,54.95A9,9,0,0,0,444.36,48.54ZM450.2,92.7h-12c0.9-5,1.72-7.93,2.51-11.93,1-5.09,2-10.29,3.27-15.17l0.34-2.76,0.28,2.65Z" transform="translate(-0.4 -0.44)"/><path class="cls-1" d="M541.14,49a8.71,8.71,0,0,0-8.1,6c-1.85,5.64-3.9,12.18-6.15,20-0.91,3.06-1.75,6.18-2.53,9.21-0.58,2.25-1.2,4.56-1.82,6.8-0.9-3.34-1.76-6.66-2.63-10-2.15-8.29-4.38-16.85-7.15-25.66a8.58,8.58,0,0,0-8.09-5.88,10.76,10.76,0,0,0-7.37,2.72,7.5,7.5,0,0,0-2.29,5.2V130.7h12.07l-0.24-56.29-0.22-2.62,9.09,30.46,0.05,0.2c1.36,3,4,5,6.67,5a7.4,7.4,0,0,0,6.95-5.05c1.56-4.81,3.25-10.28,4.89-15.58,1.49-4.83,3-9.83,4.5-14.4l-0.5,3-0.36,53.24,0.18,2H550V57.09C550,51.78,545.22,49,541.14,49Z" transform="translate(-0.4 -0.44)"/><path class="cls-1" d="M597.44,48.77C581.92,48.77,575,59.35,575,69.18v42.76c0,9.88,6.92,20.52,22.44,20.52a24.66,24.66,0,0,0,15.5-5.11A19,19,0,0,0,620,111.94V69.18C620,55.78,608.72,48.77,597.44,48.77ZM586,69.18c0-5.79,5.48-8.82,11.06-8.82,5.35,0,10.94,2.76,10.94,8.82v42.76c0,6.14-5.59,8.94-10.94,8.94S586,118.08,586,111.94V69.18Z" transform="translate(-0.4 -0.44)"/><path class="cls-1" d="M678,112.17c0,6.14-5.53,8.94-10.83,8.94-5.13,0-11.17-3.45-11.17-8.94V49.7H644v62.47c0,9.88,7.21,20.52,22.73,20.52a24.24,24.24,0,0,0,15.35-5.11c4.67-3.74,6.92-9.07,6.92-15.41V49.7H678v62.47Z" transform="translate(-0.4 -0.44)"/><path class="cls-1" d="M748,106.22l0.9,4.13L729.25,54.7l0-.16c-0.68-3.39-4.49-5.42-7.78-5.42a7.52,7.52,0,0,0-5.37,2.24A7.72,7.72,0,0,0,714,56.91V130.7h11.81l-0.47-55.76-0.74-3.59c0.87,3.42,1.83,7.08,2.75,9.53,2.44,6.38,4.83,13,7.14,19.36,3.43,9.44,6.68,18.39,10.08,26.77a8.68,8.68,0,0,0,7.4,4.75c3.42,0,7-2.35,7-7.55V49.7H747.57Z" transform="translate(-0.4 -0.44)"/><polygon class="cls-1" points="777.6 49.26 777.6 58.26 795.6 58.26 795.6 130.26 808.6 130.26 808.6 58.26 825.6 58.26 825.6 49.26 777.6 49.26"/></svg>