<svg id="Layer_1" data-name="Layer 1" xmlns="http://www.w3.org/2000/svg" viewBox="0 0 180.36 180.36"><defs><style>.cls-1{fill:#1a1a1a;}.cls-2{fill:#fff;}.cls-3{fill:#fdb73f;}</style></defs><title>logo-mark</title><circle class="cls-1" cx="90.18" cy="90.18" r="90.18"/><path class="cls-2" d="M55.93,99.75v35.6A13.76,13.76,0,0,0,69.68,149.1h0a13.76,13.76,0,0,0,13.76-13.76V121.77A49.22,49.22,0,0,1,55.93,99.75Z" transform="translate(-0.4 -0.44)"/><path class="cls-3" d="M133.58,95.52a147.35,147.35,0,0,1-21.69-3.64l-4-.94-4.2-1c-4.2-1-8.67-2.14-13.54-3.29a42.8,42.8,0,0,0-9.73-1.14,56.33,56.33,0,0,0-24,5.76,43.54,43.54,0,0,0,5.67,10.26,43.69,43.69,0,0,0,8.66,8.72c9.07-1.71,18.63-4.3,30.58-7.13a41.93,41.93,0,0,1,4.43-.8c1.43-.18,2.85-0.29,4.25-0.32a52.32,52.32,0,0,1,18.74,3.16,43.59,43.59,0,0,0,5.55-7.42q0.6-1,1.15-2.07Z" transform="translate(-0.4 -0.44)"/><path class="cls-3" d="M108.89,105.89a42.33,42.33,0,0,0-4.54.65c-0.49.1-1,.2-1.46,0.32-10.55,2.5-19.23,4.81-27.36,6.49A43.22,43.22,0,0,0,96.39,119H97a43.9,43.9,0,0,0,4.91-.28,43.28,43.28,0,0,0,24.41-11.11A49.17,49.17,0,0,0,108.89,105.89Z" transform="translate(-0.4 -0.44)"/><path class="cls-2" d="M76.56,78.13c1.33,1,2.71,1.84,4.31,2.92,0-.77,0-1.17,0-1.58-0.13-5.78-.65-11.59-0.3-17.35,0.67-11,3.56-21.09,10.56-29.6A43.47,43.47,0,0,0,58.91,54.67a27.78,27.78,0,0,0,1,3.28C63.09,66.55,69.25,72.84,76.56,78.13Z" transform="translate(-0.4 -0.44)"/><path class="cls-2" d="M129.87,88.43c-4.63-7-10.83-12.38-18.09-17.19,0.06,0.83.08,1.31,0.12,1.78a99.74,99.74,0,0,1,.32,15.19,153,153,0,0,0,19.56,3.41Q130.9,90,129.87,88.43Z" transform="translate(-0.4 -0.44)"/><path class="cls-2" d="M92.27,59.93c8.09-5,16.64-9,26.1-10.63a46.29,46.29,0,0,1,12.76-.51,43.3,43.3,0,0,0-20.83-14.58L110,34.1l-1.13-.34A43.48,43.48,0,0,0,97,32.13H96.87c-9.13,9.1-11.81,20.58-12.61,33.22C87.12,63.41,89.64,61.58,92.27,59.93Z" transform="translate(-0.4 -0.44)"/><path class="cls-2" d="M134.28,53.41c-0.81-.19-1.62-0.35-2.44-0.46-8.48-1.15-16.57.56-24.4,3.71-2.55,1-5,2.25-7.43,3.34,5,2.81,9.88,5.32,14.51,8.29,8.56,5.49,15.88,12.3,20.74,21.39,0.4,0.75.76,1.51,1.11,2.28l0.86,0h0v0q0.61-1.51,1.12-3.09A43.45,43.45,0,0,0,134.28,53.41Z" transform="translate(-0.4 -0.44)"/><path class="cls-2" d="M70.06,78.65C60.53,70.31,56,61,56,61.53V87.88a57.2,57.2,0,0,1,18.89-5.74A58.08,58.08,0,0,1,70.06,78.65Z" transform="translate(-0.4 -0.44)"/></svg>