<?xml version="1.0" encoding="utf-8"?>
<!-- Generator: Adobe Illustrator 19.2.0, SVG Export Plug-In . SVG Version: 6.00 Build 0)  -->
<svg version="1.1" id="Layer_1" xmlns="http://www.w3.org/2000/svg" xmlns:xlink="http://www.w3.org/1999/xlink" x="0px" y="0px"
	 viewBox="0 0 512 512" style="enable-background:new 0 0 512 512;" xml:space="preserve">
<style type="text/css">
	.st0{fill:#FFFFFF;}
</style>
<path class="st0" d="M499.9,461.2L386.6,347.9c28.7-37.2,44.4-83.3,44.4-130.4C431,99.8,335.2,4,217.5,4c-57,0-110.7,22.2-151,62.6
	C26.2,106.9,4,160.5,4,217.5s22.2,110.6,62.5,150.9c40.3,40.3,93.9,62.6,151,62.6c47.1,0,93.1-15.7,130.3-44.3L461.1,500
	c5.4,5.4,12.4,8,19.4,8c7,0,14-2.7,19.4-8c5.2-5.1,8.1-12,8.1-19.4C508,473.3,505.1,466.4,499.9,461.2z M217.5,375.9
	C130.1,375.9,59,304.8,59,217.5C59,130.1,130.1,59,217.5,59S376,130.1,376,217.5C376,304.8,304.9,375.9,217.5,375.9z"/>
</svg>
