<svg id="Capa_1" data-name="Capa 1" xmlns="http://www.w3.org/2000/svg" viewBox="0 0 23.39 19"><defs><style>.cls-1{fill:#010002;}</style></defs><title>tw</title><path class="cls-1" d="M23.7,4.75a9.58,9.58,0,0,1-2.76.76,4.82,4.82,0,0,0,2.11-2.65A9.67,9.67,0,0,1,20,4a4.8,4.8,0,0,0-8.18,4.38,13.62,13.62,0,0,1-9.89-5A4.8,4.8,0,0,0,3.42,9.78a4.8,4.8,0,0,1-2.17-.6V9.24a4.8,4.8,0,0,0,3.85,4.71,4.86,4.86,0,0,1-1.26.17A4.61,4.61,0,0,1,2.93,14a4.8,4.8,0,0,0,4.48,3.33,9.63,9.63,0,0,1-6,2.05A10.2,10.2,0,0,1,.3,19.34,13.56,13.56,0,0,0,7.66,21.5,13.56,13.56,0,0,0,21.31,7.85l0-.62A9.58,9.58,0,0,0,23.7,4.75Z" transform="translate(-0.3 -2.5)"/></svg>